<svg xmlns="http://www.w3.org/2000/svg" width="30.86" height="32.354" viewBox="0 0 30.86 32.354">
  <g id="crooked-line" transform="translate(-983.848 -3331.818)">
    <path id="Path_2" data-name="Path 2" d="M1046.78,3407.4s-6.5-6.09-8.022-3.923.707,6.2-.193,6.819-.509.325-4.257.676-2.281,1.865-2.43,1.715,2.148,4.019,1.728,5.2-5.958-.425-7.144,1,2.658,3.182,2.4,4.685c-.1.6-2.265,1.515-3.65,1.911s-3.562,3.068-3.562,3.068" transform="translate(-32.414 -64.689)" fill="none" stroke="#fff" stroke-width="1"/>
    <path id="Path_2-2" data-name="Path 2" d="M1046.78,3407.4s-6.5-6.09-8.022-3.923.707,6.2-.193,6.819-.509.325-4.257.676-2.281,1.865-2.43,1.715,2.148,4.019,1.728,5.2-5.958-.425-7.144,1,2.658,3.182,2.4,4.685c-.1.6-2.265,1.515-3.65,1.911s-3.562,3.068-3.562,3.068" transform="translate(-37.414 -70.689)" fill="none" stroke="#fff" stroke-width="1"/>
  </g>
</svg>
